<?xml version="1.0" standalone="no"?>
<!DOCTYPE svg PUBLIC "-//W3C//DTD SVG 20010904//EN"
 "http://www.w3.org/TR/2001/REC-SVG-20010904/DTD/svg10.dtd">
<svg version="1.0" xmlns="http://www.w3.org/2000/svg"
 width="185.000000pt" height="185.000000pt" viewBox="0 0 185.000000 185.000000"
 preserveAspectRatio="xMidYMid meet">

<g transform="translate(0.000000,185.000000) scale(0.100000,-0.100000)"
fill="#000000" stroke="none">
<path d="M743 1737 c8 -21 -3 -29 -21 -15 -11 10 -16 9 -23 -5 -7 -12 -18 -15
-41 -10 -23 5 -29 3 -24 -6 5 -8 0 -14 -13 -18 -13 -3 -21 -13 -21 -26 0 -16
-3 -18 -12 -9 -22 22 -41 14 -35 -15 5 -26 4 -26 -9 -8 -14 18 -14 18 -14 -4
0 -21 -2 -22 -17 -10 -15 13 -16 11 -10 -13 6 -22 4 -26 -8 -22 -8 4 -17 -1
-21 -10 -3 -9 -13 -16 -21 -16 -9 0 -13 -6 -10 -14 3 -8 -1 -16 -9 -18 -12 -3
-12 -7 3 -28 25 -36 26 -52 2 -40 -15 9 -19 7 -19 -5 0 -9 7 -18 15 -21 8 -4
12 -10 9 -16 -3 -5 -12 -7 -20 -4 -7 3 -16 1 -19 -5 -4 -5 0 -12 8 -15 8 -3
15 -17 15 -32 0 -15 10 -35 24 -47 13 -11 23 -26 20 -33 -2 -7 1 -12 8 -12 8
0 8 -6 0 -20 -8 -16 -8 -22 4 -26 8 -3 18 -19 21 -35 4 -16 11 -29 15 -29 5 0
7 -7 4 -15 -4 -8 -1 -22 6 -30 7 -8 9 -15 6 -15 -4 0 -1 -12 7 -27 8 -16 20
-50 26 -78 7 -27 35 -87 62 -133 44 -73 49 -87 43 -120 -9 -46 -42 -92 -66
-92 -18 0 -123 -53 -323 -162 -102 -56 -114 -65 -162 -132 -62 -86 -102 -188
-110 -278 l-6 -68 906 0 906 0 -6 38 c-18 127 -94 385 -129 436 -8 12 -45 29
-91 42 -43 13 -121 43 -173 67 -85 39 -139 61 -275 109 -58 20 -66 43 -63 175
3 111 4 112 35 145 17 18 35 47 39 63 4 17 17 48 30 71 13 22 24 50 24 62 0
14 5 20 14 16 23 -9 31 18 10 33 -15 11 -16 17 -6 33 8 13 9 27 3 44 -6 13 -8
26 -5 29 12 12 12 49 -1 53 -7 3 -11 12 -8 21 3 8 0 18 -6 23 -7 4 -14 23 -15
42 -3 38 -27 98 -38 98 -5 0 -8 6 -8 13 0 18 -47 40 -55 27 -12 -19 -26 -10
-15 9 14 27 14 28 -20 29 -17 0 -30 -5 -30 -11 -1 -7 -7 2 -14 19 -17 38 -39
55 -36 28 4 -35 0 -37 -22 -9 -19 24 -23 25 -28 11 -5 -15 -9 -15 -41 7 -28
19 -37 21 -47 11 -7 -7 -20 -10 -29 -7 -11 4 -14 3 -9 -5 4 -7 3 -12 -3 -12
-5 0 -13 4 -16 10 -3 5 -16 15 -27 21 -17 9 -20 9 -15 -4z m185 -556 c10 -6 7
-12 -12 -24 -36 -24 -46 -21 -33 8 13 26 23 30 45 16z m-304 -50 c-9 -10 -26
18 -18 30 5 9 9 8 14 -7 4 -10 6 -21 4 -23z m48 7 c-9 -9 -12 -7 -12 12 0 19
3 21 12 12 9 -9 9 -15 0 -24z m162 17 c4 -10 -1 -15 -14 -15 -20 0 -26 11 -13
23 10 11 20 8 27 -8z"/>
</g>
</svg>
